<svg id="Layer_5" enable-background="new 0 0 64 64" height="512" viewBox="0 0 64 64" width="512" xmlns="http://www.w3.org/2000/svg" xmlns:xlink="http://www.w3.org/1999/xlink"><linearGradient id="SVGID_1_" gradientUnits="userSpaceOnUse" x1="32" x2="32" y1="63" y2="1"><stop offset="0" stop-color="#9f2fff"/><stop offset="1" stop-color="#0bb1d3"/></linearGradient><path d="m19 57h2v2h-2zm0-2h2v-2h-2zm28.781-28.375 4.499-5.625-4.499-5.625-1.562 1.249 3.501 4.376-3.501 4.375zm-8-1.25-3.501-4.375 3.501-4.375-1.562-1.249-4.499 5.624 4.499 5.625zm5.209-11.233-1.98-.283-2 14 1.98.283zm15.404 2.269 2.606.868v7.441l-2.606.869c-.411 1.561-1.032 3.057-1.852 4.46l1.231 2.461-5.263 5.262-2.461-1.23c-1.403.819-2.899 1.44-4.46 1.851l-.868 2.607h-7.441l-.869-2.606c-1.562-.411-3.06-1.033-4.464-1.854l-1.776.871c-.732.959-1.874 1.589-3.171 1.589h-1.227c-.864 1.882-2.166 3.524-3.773 4.82v1.502l9.342 3.737c3.437 1.375 5.658 4.655 5.658 8.358v5.583h-38v-5.583c0-3.702 2.221-6.982 5.658-8.357l9.342-3.737v-1.503c-1.607-1.297-2.908-2.939-3.773-4.82h-1.227c-2.206 0-4-1.794-4-4v-7.667c0-5.697 4.636-10.333 10.333-10.333 2.609 0 5.102-1.246 6.667-3.333l.768-1.023.787.524c.046.031.43.293.924.749.289-.672.609-1.332.979-1.967l-1.231-2.462 5.263-5.261 2.461 1.23c1.403-.819 2.899-1.44 4.46-1.851l.868-2.606h7.441l.869 2.606c1.561.411 3.057 1.032 4.46 1.851l2.461-1.23 5.263 5.261-1.231 2.462c.819 1.404 1.44 2.9 1.852 4.461zm-51.394 10.922v4.223c.591-.344 1.268-.556 2-.556v-.93c0-1.005.499-1.938 1.336-2.496l2.592-1.728.52.259c2.478 1.24 5.253 1.895 8.024 1.895h2.528c1.654 0 3 1.346 3 3 .732 0 1.409.212 2 .556v-4.223c0-2.339-.988-4.542-2.679-6.108-1.233 1.786-4.114 2.775-8.321 2.775v-2c3.384 0 7-.788 7-3 0-1.583-1.088-2.875-1.845-3.582-1.949 2.255-4.823 3.582-7.822 3.582-4.595 0-8.333 3.738-8.333 8.333zm22.006-6.082c1.272 1.746 1.994 3.864 1.994 6.082v.278c2.233 3.374 5.946 5.389 10 5.389 6.617 0 12-5.383 12-12s-5.383-12-12-12-12 5.383-12 12c0 .084.004.168.006.251zm-4.006 13.739v-1.99h-4v2h3.979l.007-.01zm-4-3.99h4c0-.551-.448-1-1-1h-2.528c-2.885 0-5.773-.639-8.392-1.852l-1.635 1.09c-.279.186-.445.497-.445.832v.93h4c.737 0 1.375.405 1.722 1h2.556c.347-.595.985-1 1.722-1zm-6 4v-2h-4v.456 1.506l.025.038zm-5.488 2c-.098-.355-.205-.707-.273-1.072-.148-.279-.239-.591-.239-.928v-1.544-.456c-1.103 0-2 .897-2 2s.897 2 2 2zm7.088 12.8-1.94-2.587-.45.18.541 3.793zm14 1.117-6.898-2.759-.951 6.656-4.751-3.564-4.751 3.563-.951-6.656-6.898 2.76c-2.673 1.069-4.4 3.62-4.4 6.5v3.583h4v-6h2v6h22v-6h2v6h4v-3.583c0-2.88-1.728-5.431-4.4-6.5zm-11.2-1.117 1.849 1.387.541-3.793-.45-.18zm.6-4.621c-.529.287-1.077.543-1.648.757l-.352.132-.352-.131c-.571-.214-1.12-.471-1.648-.757v.487l2 2.666 2-2.666zm4.413-8.179h-3.413c-1.103 0-2-.897-2-2v-1h-2v1c0 1.103-.897 2-2 2h-3.413c1.027 3.104 3.361 5.662 6.413 6.925 3.052-1.263 5.385-3.821 6.413-6.925zm4.587-2c0-1.103-.897-2-2-2v2c0 .337-.091.649-.239.928-.069.365-.175.717-.273 1.072h.512c1.103 0 2-.897 2-2zm30-16.279-2.294-.765-.126-.547c-.396-1.725-1.078-3.367-2.026-4.881l-.298-.476 1.084-2.168-3.224-3.223-2.167 1.083-.477-.298c-1.514-.949-3.156-1.63-4.881-2.026l-.548-.125-.764-2.295h-4.559l-.765 2.294-.547.126c-1.725.396-3.367 1.078-4.881 2.026l-.477.298-2.167-1.083-3.223 3.223 1.084 2.168-.298.476c-.616.983-1.115 2.03-1.501 3.113.589.911 1.055 2.047 1.055 3.359 0 .063-.009.121-.012.183.043.033.086.066.128.1.851-6.911 6.747-12.283 13.884-12.283 7.72 0 14 6.28 14 14s-6.28 14-14 14c-3.827 0-7.395-1.536-10-4.204v3.981l1.056-.518.472.295c1.514.949 3.156 1.63 4.881 2.026l.548.125.764 2.295h4.559l.765-2.294.548-.125c1.725-.396 3.367-1.078 4.881-2.026l.477-.298 2.167 1.083 3.224-3.223-1.084-2.168.298-.476c.948-1.514 1.63-3.156 2.026-4.881l.126-.547 2.292-.766zm-2 24.279h-18v2h18zm-18 6h18v-2h-18zm0 4h10v-2h-10zm14 0v-2h-2v2zm4 0v-2h-2v2z" fill="url(#SVGID_1_)"/></svg>